<svg width="132" height="115" viewBox="0 0 132 115" fill="none" xmlns="http://www.w3.org/2000/svg">
<path fill-rule="evenodd" clip-rule="evenodd" d="M50.326 10.8541C13.001 44.5311 0 56.6181 0 57.6421C0 59.4941 6.049 67.1841 7.506 67.1841C8.239 67.1841 21.704 55.4671 37.428 41.1461L66.017 15.1071L94.553 41.1461C110.248 55.4671 123.705 67.1841 124.458 67.1841C125.942 67.1841 132 59.5181 132 57.6401C132 57.0081 127.765 52.7091 122.59 48.0871L113.18 39.6841L112.84 20.1841L112.5 0.684066H102.5H92.5L92.213 10.4721L91.927 20.2611L80.993 10.2221C66.038 -3.50893 66.249 -3.51293 50.326 10.8541ZM42.25 44.2931L19 65.3151V88.1781C19 107.629 19.235 111.276 20.571 112.613C21.872 113.914 24.97 114.184 38.571 114.184H55V97.1841V80.1841H65.5H76V97.1841V114.184H92.929C106.985 114.184 110.124 113.917 111.429 112.613C112.766 111.276 113 107.629 113 88.1701V65.3001L89.904 44.4921C77.201 33.0481 66.514 23.5911 66.154 23.4781C65.794 23.3641 55.038 32.7311 42.25 44.2931Z" fill="#ACC8A2"/>
</svg>
